<svg width="778" height="869" viewBox="0 0 778 869" fill="none" xmlns="http://www.w3.org/2000/svg">
<path fill-rule="evenodd" clip-rule="evenodd" d="M397.688 325.272C404.3 330.304 408.236 336.695 403.942 343.889C400.319 349.959 392.005 350.021 383.127 347.788C384.457 351.556 386.014 355.244 387.788 358.831C391.651 366.639 394.888 372.276 397.501 375.743C402.472 382.339 411.658 376.038 425.059 356.838C430.349 349.259 439.008 344.743 448.251 344.743C449.096 344.743 449.938 344.829 450.766 344.999C457.511 346.388 461.854 352.982 460.465 359.728C445.575 432.053 433.757 471.51 425.012 478.099C411.016 488.646 398.01 535.263 398.01 535.263L319.447 523.87L310.72 489.604C308.063 479.174 307.623 468.302 309.428 457.692L328.937 342.958C330.241 335.292 332.655 327.857 336.104 320.887L343.46 306.023C349.229 294.364 361.482 287.358 374.456 288.299L444.641 293.39C450.614 293.824 455.827 297.598 458.103 303.137C461.418 311.202 457.567 320.428 449.501 323.743C442.913 326.45 425.642 326.96 397.688 325.272Z" fill="#8A92A6"/>
<path fill-rule="evenodd" clip-rule="evenodd" d="M317 388.991L303.242 412.33C303.081 412.604 302.931 412.885 302.794 413.172L254 515.241L263 568.741L341 509.241L337 450.741L314 466.241L326.424 392.428C326.892 389.65 325.019 387.019 322.241 386.551C320.157 386.201 318.073 387.171 317 388.991Z" fill="#8A92A6"/>
<path fill-rule="evenodd" clip-rule="evenodd" d="M263.5 401.183C244.462 394.222 225.425 387.26 206.387 380.299C159.704 363.229 108.023 387.235 90.9525 433.917C87.7052 442.798 85.8777 452.135 85.5372 461.584L82 559.741H284C270.333 454.036 263.5 401.183 263.5 401.183Z" fill="#8A92A6"/>
<path fill-rule="evenodd" clip-rule="evenodd" d="M254.863 210.727L301.102 206.88L309.067 153.394C309.312 151.755 310.838 150.624 312.477 150.868C313.789 151.064 314.817 152.098 315.005 153.411L323.591 213.465C324.451 219.479 320.273 225.052 314.259 225.911C314.21 225.918 314.161 225.925 314.112 225.931L259.788 232.953C252.999 233.831 246.747 229.137 245.696 222.372C244.838 216.846 248.621 211.67 254.147 210.812C254.385 210.775 254.623 210.746 254.863 210.727Z" fill="#8A92A6"/>
<mask id="mask0_6634_8213" style="mask-type:alpha" maskUnits="userSpaceOnUse" x="83" y="0" width="208" height="406">
<path d="M136.694 401.564C133.456 402.811 129.886 403.345 126.197 402.992C124.829 402.862 123.474 402.615 122.147 402.256C109.157 398.738 101.479 385.355 104.997 372.365L110.447 352.242L110.368 352.286C106.101 354.638 101.063 355.162 96.4031 353.736C86.89 350.826 81.537 340.756 84.4469 331.242L112.898 232.291C115.242 220.767 119.435 206.57 126.207 186.003L127.001 183.242L127.033 183.501C135.371 158.315 147.428 123.828 164.447 73.7424C164.763 72.8117 174.128 44.6784 174.447 43.7424C176.46 41.0576 180.269 40.5135 182.954 42.5271C184.043 43.3438 184.826 44.5025 185.178 45.8175L191.447 69.2424L200.048 6.05666C200.57 2.226 204.098 -0.45665 207.928 0.0648015C210.658 0.436338 212.915 2.37402 213.697 5.01543L214.947 9.2424L286.569 242.014C289.471 251.447 290.947 261.26 290.947 271.129V364.742C290.947 387.386 272.591 405.742 249.947 405.742H154.743C148.276 405.742 142.147 404.242 136.694 401.564Z" fill="white"/>
</mask>
<g mask="url(#mask0_6634_8213)">
<path d="M136.694 401.564C133.456 402.811 129.886 403.345 126.197 402.992C124.829 402.862 123.474 402.615 122.147 402.256C109.157 398.738 101.479 385.355 104.997 372.365L110.447 352.242L110.368 352.286C106.101 354.638 101.063 355.162 96.4031 353.736C86.89 350.826 81.537 340.756 84.4469 331.242L112.898 232.291C115.242 220.767 119.435 206.57 126.207 186.003L127.001 183.242L127.033 183.501C135.371 158.315 147.428 123.828 164.447 73.7424C164.763 72.8117 174.128 44.6784 174.447 43.7424C176.46 41.0576 180.269 40.5135 182.954 42.5271C184.043 43.3438 184.826 44.5025 185.178 45.8175L191.447 69.2424L200.048 6.05666C200.57 2.226 204.098 -0.45665 207.928 0.0648015C210.658 0.436338 212.915 2.37402 213.697 5.01543L214.947 9.2424L286.569 242.014C289.471 251.447 290.947 261.26 290.947 271.129V364.742C290.947 387.386 272.591 405.742 249.947 405.742H154.743C148.276 405.742 142.147 404.242 136.694 401.564Z" fill="#8A92A6"/>
<path fill-rule="evenodd" clip-rule="evenodd" d="M288.447 252.742C286.447 247.409 283.447 245.242 279.447 246.242C275.447 247.242 272.781 250.909 271.447 257.242C265.283 247.224 253.95 241.593 242.242 242.731C238.822 243.063 235.057 243.567 230.947 244.242C206.68 248.23 195.154 272.194 193.947 284.742C192.922 295.41 193.764 288.285 194.001 315.242C194.052 321.043 191.172 336.466 185.361 361.509C182.615 373.345 189.984 385.166 201.819 387.912C203.404 388.28 205.025 388.471 206.652 388.481C228.702 388.622 241.133 388.542 243.947 388.242C258.83 386.657 262.055 383.242 273.001 383.242C282.235 383.242 286.735 385.576 286.501 390.242C302.487 383.968 311.136 368.135 312.447 342.742C313.759 317.349 305.759 287.349 288.447 252.742Z" fill="#043BFF"/>
</g>
<path fill-rule="evenodd" clip-rule="evenodd" d="M241.945 365.242H249.945L247.644 375.725C247.47 376.52 246.83 377.13 246.027 377.267C244.939 377.453 243.905 376.721 243.719 375.633L241.945 365.242ZM280.945 365.242H288.945L286.644 375.725C286.47 376.52 285.83 377.13 285.027 377.267C283.939 377.453 282.905 376.721 282.719 375.633L280.945 365.242Z" fill="white"/>
<mask id="mask1_6634_8213" style="mask-type:alpha" maskUnits="userSpaceOnUse" x="412" y="547" width="355" height="342">
<path d="M608.045 649.809C630.19 595.365 645.41 565.154 653.704 559.176C663.87 551.849 675.414 553.626 680.292 559.66C696.373 544.076 712.299 543.745 728.07 558.666C729.43 559.584 730.676 560.509 731.807 561.44C737.212 561.375 742.68 562.432 748.212 564.61C776 575.55 772.104 598.172 736.524 632.478L634.748 749.606C622.662 763.514 606.935 773.779 589.309 779.263C584.766 780.676 578.967 785.443 571.911 793.564C565.641 800.779 562.237 806.202 561.7 809.831C558.923 828.6 550.855 846.153 538.44 860.442L525.399 875.449C524.336 876.672 523.194 877.823 521.979 878.895C506.684 892.387 483.249 890.852 469.635 875.467L445.7 848.418L445.513 848.589L445.23 847.886L440.641 842.7L442.436 840.928L412.469 766.288L538.766 649.298L606.743 651.542C607.178 650.963 607.612 650.385 608.045 649.809Z" fill="white"/>
</mask>
<g mask="url(#mask1_6634_8213)">
<path d="M608.045 649.809C630.19 595.365 645.41 565.154 653.704 559.176C663.87 551.849 675.414 553.626 680.292 559.66C696.373 544.076 712.299 543.745 728.07 558.666C729.43 559.584 730.676 560.509 731.807 561.44C737.212 561.375 742.68 562.431 748.212 564.609C776 575.55 772.104 598.172 736.524 632.477L634.748 749.606C622.662 763.514 606.935 773.779 589.309 779.263C584.766 780.676 578.967 785.443 571.911 793.564C565.641 800.779 562.237 806.202 561.7 809.831C558.923 828.6 550.855 846.153 538.44 860.442L525.399 875.449C524.336 876.672 523.194 877.823 521.979 878.895C506.684 892.387 483.249 890.852 469.635 875.467L445.7 848.417L445.513 848.589L445.23 847.886L440.641 842.7L442.436 840.928L412.469 766.288L538.766 649.298L606.743 651.542C607.178 650.962 607.612 650.385 608.045 649.809Z" fill="#8A92A6"/>
</g>
<mask id="mask2_6634_8213" style="mask-type:alpha" maskUnits="userSpaceOnUse" x="200" y="309" width="51" height="29">
<path d="M236.945 309.742H214.945C207.213 309.742 200.945 316.01 200.945 323.742C200.945 331.474 207.213 337.742 214.945 337.742H236.945C244.677 337.742 250.945 331.474 250.945 323.742C250.945 316.01 244.677 309.742 236.945 309.742Z" fill="white"/>
</mask>
<g mask="url(#mask2_6634_8213)">
<path d="M236.945 309.742H214.945C207.213 309.742 200.945 316.01 200.945 323.742C200.945 331.474 207.213 337.742 214.945 337.742H236.945C244.677 337.742 250.945 331.474 250.945 323.742C250.945 316.01 244.677 309.742 236.945 309.742Z" fill="white"/>
<path d="M251.445 320.742C251.445 314.667 246.52 309.742 240.445 309.742C234.37 309.742 229.445 314.667 229.445 320.742V326.742C229.445 332.817 234.37 337.742 240.445 337.742C246.52 337.742 251.445 332.817 251.445 326.742V320.742Z" fill="#2B2B2B"/>
</g>
<mask id="mask3_6634_8213" style="mask-type:alpha" maskUnits="userSpaceOnUse" x="277" y="309" width="14" height="29">
<path d="M290.945 309.742V337.742C283.489 337.742 277.445 331.698 277.445 324.242V323.242C277.445 315.786 283.489 309.742 290.945 309.742Z" fill="white"/>
</mask>
<g mask="url(#mask3_6634_8213)">
<path d="M290.945 309.742V337.742C283.489 337.742 277.445 331.698 277.445 324.242V323.242C277.445 315.786 283.489 309.742 290.945 309.742Z" fill="white"/>
<path d="M306.945 320.742C306.945 314.667 302.02 309.742 295.945 309.742C289.87 309.742 284.945 314.667 284.945 320.742V326.742C284.945 332.817 289.87 337.742 295.945 337.742C302.02 337.742 306.945 332.817 306.945 326.742V320.742Z" fill="#2B2B2B"/>
</g>
<path fill-rule="evenodd" clip-rule="evenodd" d="M513 733.242C529.121 730.762 542.744 719.975 548.855 704.852L549 704.492C555.26 688.998 553.495 671.415 544.28 657.474L539.5 650.242C557.033 656.618 576.415 647.573 582.791 630.04C582.94 629.63 583.081 629.218 583.214 628.802L589 610.742C560.172 613.526 539.839 611.526 528 604.742C516.161 597.958 506.161 589.625 498 579.742L488.5 595.742L513 733.242Z" fill="#8A92A6"/>
<mask id="mask4_6634_8213" style="mask-type:alpha" maskUnits="userSpaceOnUse" x="277" y="733" width="422" height="158">
<path d="M539.451 804.089C595.177 785.197 628.027 776.915 638 779.242C650.225 782.095 656.472 791.921 655.117 799.52C677.474 801.427 688.196 813.168 687.285 834.742L684.211 835.977C689.51 840.586 693.451 846.508 696.035 853.742C706.035 881.742 686.368 893.576 637.035 889.242H481.554C463.091 889.242 444.989 884.131 429.252 874.475C425.198 871.986 417.78 870.742 407 870.742C397.422 870.742 391.084 871.724 387.986 873.689C371.969 883.848 353.393 889.242 334.426 889.242H314.504C312.881 889.242 311.259 889.135 309.65 888.922C289.392 886.241 275.143 867.645 277.824 847.387L282.538 811.771L282.285 811.742L282.631 811.071L283.535 804.242L286.055 804.434L322.785 733.242L494.285 751.742L537.285 804.242C538.009 804.191 538.731 804.14 539.451 804.089Z" fill="white"/>
</mask>
<g mask="url(#mask4_6634_8213)">
<path d="M539.451 804.089C595.177 785.197 628.027 776.915 638 779.242C650.225 782.095 656.472 791.921 655.117 799.52C677.474 801.427 688.196 813.168 687.285 834.742L684.211 835.977C689.51 840.586 693.451 846.508 696.035 853.742C706.035 881.742 686.368 893.576 637.035 889.242H481.554C463.091 889.242 444.989 884.131 429.252 874.475C425.198 871.986 417.78 870.742 407 870.742C397.422 870.742 391.084 871.724 387.986 873.689C371.969 883.848 353.393 889.242 334.426 889.242H314.504C312.881 889.242 311.259 889.135 309.65 888.922C289.392 886.241 275.143 867.645 277.824 847.387L282.538 811.771L282.285 811.742L282.631 811.071L283.535 804.242L286.055 804.434L322.785 733.242L494.285 751.742L537.285 804.242C538.009 804.191 538.731 804.14 539.451 804.089Z" fill="#043BFF"/>
<path d="M689.137 834.093C688.743 833.532 687.977 832.63 686.802 831.506C684.893 829.68 682.497 827.865 679.577 826.179C665.666 818.147 645.477 815.764 618.037 822.297C616.963 822.553 616.299 823.631 616.555 824.706C616.811 825.781 617.889 826.444 618.964 826.188C645.444 819.883 664.587 822.143 677.577 829.643C680.214 831.165 682.354 832.787 684.037 834.397C684.616 834.95 685.093 835.458 685.475 835.907C685.69 836.161 685.818 836.327 685.864 836.392C686.498 837.296 687.746 837.514 688.65 836.88C689.554 836.245 689.772 834.997 689.137 834.093Z" fill="#043BFF"/>
<path d="M695.164 851.244C696.269 851.244 697.164 852.139 697.164 853.244C697.164 854.348 696.269 855.244 695.164 855.244C692.234 855.244 678.435 852.075 668.917 848.957C662.733 846.931 657.973 844.889 655.067 842.86C650.923 839.969 650.048 836.311 654.038 833.591C661.993 828.167 673.399 828.167 688.164 833.357C689.206 833.723 689.754 834.865 689.387 835.907C689.021 836.949 687.879 837.497 686.837 837.131C673.154 832.321 663.002 832.321 656.291 836.896C655.109 837.702 655.197 838.074 657.356 839.58C659.86 841.328 664.323 843.243 670.162 845.156C679.301 848.15 692.775 851.244 695.164 851.244ZM670.501 797.244C671.605 797.244 672.501 798.139 672.501 799.244C672.501 800.348 671.605 801.244 670.501 801.244C667.233 801.244 664.903 800.991 660.104 800.26L659.969 800.239C653.133 799.198 649.801 798.996 644.52 799.693C637.48 800.623 628.941 803.328 617.677 808.455C616.671 808.912 615.485 808.468 615.028 807.463C614.57 806.458 615.014 805.272 616.02 804.814C627.617 799.535 636.522 796.715 643.996 795.728C649.737 794.969 653.392 795.192 660.571 796.285L660.706 796.306C665.316 797.008 667.491 797.244 670.501 797.244Z" fill="#043BFF"/>
</g>
<path fill-rule="evenodd" clip-rule="evenodd" d="M270.287 296.272L284.522 340.839C285.99 345.438 283.453 350.356 278.855 351.825C278.044 352.084 277.199 352.223 276.348 352.238L271.7 352.319C267.835 352.386 264.647 349.307 264.579 345.442C264.579 345.408 264.578 345.375 264.578 345.341L264.43 297.194C264.424 295.538 265.763 294.19 267.42 294.185C268.729 294.181 269.889 295.026 270.287 296.272Z" fill="#043BFF"/>
<mask id="mask5_6634_8213" style="mask-type:alpha" maskUnits="userSpaceOnUse" x="49" y="446" width="490" height="359">
<path d="M87.0007 536.742L51.4073 695.21C41.7247 738.319 68.8219 781.115 111.931 790.797C117.685 792.09 123.565 792.742 129.463 792.742H211.217C248.561 792.742 282.793 771.935 299.987 738.785L334.501 672.242L283.501 804.242H306.942C332.566 804.242 356.788 792.547 372.723 772.48L388.001 753.242V771.242C388.001 789.468 402.775 804.242 421.001 804.242C440.81 804.242 458.499 791.842 465.254 773.22L472.501 753.242L480.558 768.748C491.89 790.557 514.423 804.242 539.001 804.242C515.687 734.693 502.354 678.86 499.001 636.742C495.648 594.624 499.481 531.124 510.501 446.242H411.501L233.001 553.242L87.0007 536.742Z" fill="white"/>
</mask>
<g mask="url(#mask5_6634_8213)">
<path d="M87.0007 536.742L51.4073 695.21C41.7247 738.319 68.8219 781.115 111.931 790.797C117.685 792.09 123.565 792.742 129.463 792.742H211.217C248.561 792.742 282.793 771.935 299.987 738.785L334.501 672.242L283.501 804.242H306.942C332.566 804.242 356.788 792.547 372.723 772.48L388.001 753.242V771.242C388.001 789.468 402.775 804.242 421.001 804.242C440.81 804.242 458.499 791.842 465.254 773.22L472.501 753.242L480.558 768.748C491.89 790.557 514.423 804.242 539.001 804.242C515.687 734.693 502.354 678.86 499.001 636.742C495.648 594.624 499.481 531.124 510.501 446.242H411.501L233.001 553.242L87.0007 536.742Z" fill="#8A92A6"/>
</g>
<path d="M205.86 375.156C211.168 369.848 215.153 367.242 217.445 367.242H289.945C291.05 367.242 291.945 366.347 291.945 365.242C291.945 364.138 291.05 363.242 289.945 363.242H217.445C213.737 363.242 209.056 366.303 203.031 372.328C202.25 373.109 202.25 374.375 203.031 375.156C203.812 375.937 205.078 375.937 205.86 375.156Z" fill="#043BFF"/>
<mask id="mask6_6634_8213" style="mask-type:alpha" maskUnits="userSpaceOnUse" x="202" y="309" width="48" height="29">
<path d="M249.072 316.742H202.818C205.239 312.558 209.763 309.742 214.945 309.742H236.945C242.127 309.742 246.652 312.558 249.072 316.742V316.742ZM248.436 331.742C245.906 335.369 241.703 337.742 236.945 337.742H214.945C210.188 337.742 205.985 335.369 203.455 331.742H248.436Z" fill="white"/>
</mask>
<g mask="url(#mask6_6634_8213)">
<path d="M249.072 316.742H202.818C205.239 312.558 209.763 309.742 214.945 309.742H236.945C242.127 309.742 246.652 312.558 249.072 316.742V316.742ZM248.436 331.742C245.906 335.369 241.703 337.742 236.945 337.742H214.945C210.188 337.742 205.985 335.369 203.455 331.742H248.436Z" fill="#043BFF"/>
</g>
<path fill-rule="evenodd" clip-rule="evenodd" d="M505.352 395.757L420.654 448.548L543.146 471.027L597.21 430.961C608.697 422.448 617.842 411.213 623.776 398.321L638.623 366.063C643.516 355.434 643.088 343.233 637.469 333.141L629.314 318.493L628.904 318.748C627.393 309.931 625.597 299.442 623.514 287.281C622.365 280.576 618.24 274.779 612.263 271.468L606.669 268.37L596.975 263.853L596.161 255.278L538.735 205.213C538.566 205.066 538.394 204.922 538.219 204.782C531.299 199.25 521.055 200.385 515.336 207.318C510.201 213.544 509.85 222.115 514.014 228.49C509.546 229.413 505.521 232.321 503.369 236.707C503.058 237.341 502.793 237.994 502.575 238.664C499.555 247.936 504.081 257.843 513.055 261.608L562.123 282.188C564.863 311.414 566.234 326.027 566.234 326.027C566.234 326.027 516.382 363.069 501.783 365.734C492.051 367.512 484.638 365.349 479.547 359.247L500.678 298.533C500.739 298.358 500.797 298.182 500.852 298.005C503.708 288.867 498.564 279.298 489.362 276.633C479.741 273.846 469.489 279.159 466.22 288.627C446.768 344.961 437.929 378.338 439.703 388.759C442.622 405.901 419.826 448.835 419.826 448.835L505.352 395.757Z" fill="#043BFF"/>
<mask id="mask7_6634_8213" style="mask-type:alpha" maskUnits="userSpaceOnUse" x="278" y="309" width="13" height="29">
<path d="M290.945 316.742H278.818C281.239 312.558 285.763 309.742 290.945 309.742V316.742ZM290.945 337.742C286.188 337.742 281.985 335.369 279.455 331.742H290.945V337.742Z" fill="white"/>
</mask>
<g mask="url(#mask7_6634_8213)">
<path d="M290.945 316.742H278.818C281.239 312.558 285.763 309.742 290.945 309.742V316.742ZM290.945 337.742C286.188 337.742 281.985 335.369 279.455 331.742H290.945V337.742Z" fill="#043BFF"/>
</g>
<path fill-rule="evenodd" clip-rule="evenodd" d="M551.887 181.288L485.461 179.32C478.346 179.109 472.206 184.271 471.19 191.316L449.865 339.241L532.907 349.604L545.927 340.583L565.346 197.16C566.383 189.498 561.013 182.446 553.351 181.408C552.866 181.343 552.377 181.303 551.887 181.288Z" fill="#2B2B2B"/>
<path d="M499.5 336.743C493.701 336.743 489 332.042 489 326.243C489 320.444 493.701 315.743 499.5 315.743C505.299 315.743 510 320.444 510 326.243C510 332.042 505.299 336.743 499.5 336.743ZM499.5 332.743C503.09 332.743 506 329.833 506 326.243C506 322.653 503.09 319.743 499.5 319.743C495.91 319.743 493 322.653 493 326.243C493 329.833 495.91 332.743 499.5 332.743ZM527.364 187.589C527.653 187.599 527.816 187.586 527.888 187.567C527.884 187.568 527.882 187.568 527.912 187.543C528.025 187.45 528.148 187.26 528.255 186.965C528.413 186.529 528.481 186.085 528.523 184.883L528.528 184.728L529.731 179.826L532.644 180.54L531.515 185.144C531.461 186.528 531.347 187.237 531.076 187.986C530.797 188.757 530.38 189.396 529.821 189.857C529.132 190.425 528.414 190.627 527.259 190.587L507.399 189.894C506.244 189.853 505.541 189.601 504.894 188.986C504.369 188.488 503.997 187.821 503.772 187.032C503.546 186.239 503.486 185.499 503.538 184.011L503.543 183.856L504.746 178.953L507.66 179.668L506.531 184.269C506.497 185.356 506.536 185.784 506.658 186.21C506.744 186.513 506.854 186.71 506.96 186.811C506.988 186.838 506.986 186.838 506.981 186.836C507.051 186.861 507.213 186.885 507.504 186.895L527.364 187.589Z" fill="white"/>
<mask id="mask8_6634_8213" style="mask-type:alpha" maskUnits="userSpaceOnUse" x="0" y="792" width="271" height="98">
<path d="M58.2547 825.361L0 889.242H271L243.467 842.216C225.525 811.573 192.679 792.742 157.17 792.742H132.145C104.024 792.742 77.2028 804.582 58.2547 825.361Z" fill="white"/>
</mask>
<g mask="url(#mask8_6634_8213)">
<path d="M58.2547 825.361L0 889.242H271L243.467 842.216C225.525 811.573 192.679 792.742 157.17 792.742H132.145C104.024 792.742 77.2028 804.582 58.2547 825.361Z" fill="#8A92A6"/>
<path d="M32.5234 844.014L35.7728 840.514C59.1657 862.464 83.7348 873.384 109.551 873.384C130.269 873.384 153.264 863.395 168.299 846.55C186.173 826.524 191.857 798.87 181.88 765.552L186.44 764.172C196.888 799.062 190.847 828.456 171.844 849.748C155.892 867.62 131.601 878.172 109.551 878.172C82.4525 878.172 56.7533 866.749 32.5234 844.014ZM241.094 832.412L242.906 837.072C213.959 848.329 202.009 866.725 206.464 892.821L201.536 893.663C196.658 865.091 210.041 844.488 241.094 832.412Z" fill="white"/>
<path d="M39.5234 824.747C59.7579 843.66 81.2416 853.172 103.904 853.172C122.37 853.172 142.695 844.377 156.048 829.474C171.954 811.723 177.01 787.219 168.277 758.172L163.701 759.535C171.966 787.027 167.265 809.812 152.483 826.309C140.05 840.185 121.028 848.416 103.904 848.416C82.5341 848.416 62.1874 839.408 42.7929 821.28L39.5234 824.747Z" fill="white"/>
</g>
<path fill-rule="evenodd" clip-rule="evenodd" d="M295.946 242.244C300.446 260.244 295.946 268.744 280.946 268.744C270.946 268.744 260.946 264.077 250.946 254.744C256.279 264.077 253.279 268.744 241.946 268.744C224.946 268.744 222.446 258.185 222.446 257.244C222.446 256.303 221.832 240.236 225.446 236.744C227.303 234.949 235.812 234.949 250.973 236.744C277.955 228.411 292.946 230.244 295.946 242.244Z" fill="#8A92A6"/>
<path fill-rule="evenodd" clip-rule="evenodd" d="M175.539 291.365C180.039 309.365 175.539 317.865 160.539 317.865C150.539 317.865 140.539 313.198 130.539 303.865C135.873 313.198 132.873 317.865 121.539 317.865C104.539 317.865 102.039 307.306 102.039 306.365C102.039 305.424 101.426 289.357 105.039 285.865C106.897 284.07 115.406 284.07 130.567 285.865C157.549 277.532 172.539 279.365 175.539 291.365Z" fill="#8A92A6"/>
<path fill-rule="evenodd" clip-rule="evenodd" d="M513.5 164.742L502 137.742H500.5C477.304 137.742 458.5 118.938 458.5 95.7422V47.2422C458.5 24.0462 477.304 5.24219 500.5 5.24219H630.5C653.696 5.24219 672.5 24.0462 672.5 47.2422V95.7422C672.5 118.938 653.696 137.742 630.5 137.742H533.5L513.5 164.742Z" fill="#8A92A6"/>
<path fill-rule="evenodd" clip-rule="evenodd" d="M416.826 442.62C416.826 442.62 441.755 400.86 439.711 383.536C438.468 373.004 448.983 340.059 471.254 284.7C474.998 275.396 485.499 270.63 494.96 273.942C504.613 277.321 510.101 287.339 507.74 297.269L495.007 350.81C493.622 356.631 497.254 362.402 503.119 363.7C504.15 363.928 505.212 364.006 506.27 363.931" fill="#043BFF"/>
<path fill-rule="evenodd" clip-rule="evenodd" d="M237.678 299.509L204.565 305.452C204.022 305.55 203.502 305.188 203.404 304.645C203.376 304.487 203.386 304.325 203.434 304.172L205.196 298.493C206.581 294.031 210.313 290.695 214.902 289.818L226.61 287.579L231.946 290.243L231.801 286.587L234.566 286.058C237.824 285.435 240.97 287.572 241.593 290.83C241.651 291.131 241.685 291.436 241.696 291.743L241.791 294.409C241.88 296.896 240.127 299.07 237.678 299.509ZM281.504 287.875C279.394 287.204 277.977 285.224 278.021 283.01L278.112 278.487C278.121 278.056 278.196 277.629 278.334 277.221C279.08 275.021 281.468 273.841 283.669 274.587L283.587 278.243L286.597 275.579L290.437 276.881C294.734 278.337 297.894 282.023 298.677 286.493L299.661 292.117C299.689 292.276 299.678 292.439 299.629 292.593C299.462 293.119 298.899 293.41 298.373 293.243L281.504 287.875Z" fill="#8A92A6"/>
<path fill-rule="evenodd" clip-rule="evenodd" d="M262.738 400.58L279.683 391.57L281.732 407.889C282.13 411.061 281.129 414.249 278.989 416.624C274.922 421.136 267.966 421.498 263.453 417.431L259.65 414.003L257.616 422.845C256.621 427.169 253.875 430.886 250.034 433.108C242.385 437.532 232.598 434.918 228.173 427.269L220.033 413.195L209.279 435.465C207.168 439.837 203.186 443.014 198.454 444.101C189.842 446.08 181.256 440.703 179.277 432.09L174.556 411.543L166.711 423.7C164.085 427.771 159.756 430.432 154.938 430.938C146.15 431.861 138.278 425.485 137.354 416.697L135.357 397.686C151.627 396.232 162.989 396.25 169.445 397.741C171.134 398.131 172.56 398.638 173.721 399.263C177.492 397.543 182.733 397.035 189.445 397.741C195.515 398.379 203.731 400.108 214.094 402.927L213.103 401.214L264.463 393.08L262.738 400.58Z" fill="#8A92A6"/>
<path d="M177.471 432.712C179.697 442.4 189.356 448.45 199.045 446.224C204.368 445 208.848 441.426 211.223 436.508L220.335 417.638L226.585 428.444C231.562 437.049 242.573 439.99 251.179 435.013C255.5 432.513 258.589 428.331 259.708 423.466L260.98 417.938L262.257 419.09C263.078 419.829 264.342 419.763 265.082 418.943C265.821 418.122 265.755 416.858 264.935 416.118L261.132 412.691C259.999 411.669 258.186 412.241 257.844 413.728L255.81 422.57C254.939 426.354 252.537 429.606 249.176 431.55C242.483 435.421 233.919 433.134 230.047 426.441L221.907 412.367C221.103 410.977 219.072 411.053 218.374 412.499L207.621 434.768C205.774 438.594 202.289 441.374 198.149 442.325C190.614 444.057 183.101 439.352 181.369 431.816L176.648 411.268C176.252 409.544 173.977 409.145 173.018 410.632L165.173 422.789C162.875 426.351 159.088 428.68 154.872 429.122C147.183 429.93 140.294 424.351 139.486 416.661L137.489 397.651C137.374 396.552 136.39 395.755 135.291 395.87C134.193 395.986 133.396 396.97 133.511 398.068L135.508 417.079C136.547 426.966 145.403 434.139 155.29 433.1C160.71 432.531 165.58 429.537 168.534 424.958L173.81 416.781L177.471 432.712Z" fill="#043BFF"/>
<path fill-rule="evenodd" clip-rule="evenodd" d="M139.865 221.473L93.9455 228.126L74.1527 177.803C73.5463 176.261 71.8047 175.503 70.2628 176.109C69.0283 176.595 68.2592 177.833 68.3717 179.155L73.5144 239.602C74.0294 245.655 79.3541 250.145 85.4073 249.63C85.4565 249.626 85.5057 249.621 85.5549 249.616L140.066 244.238C146.879 243.566 151.914 237.586 151.417 230.758C151.01 225.181 146.159 220.989 140.581 221.395C140.342 221.413 140.103 221.439 139.865 221.473Z" fill="#8A92A6"/>
<path fill-rule="evenodd" clip-rule="evenodd" d="M115.466 394.502L227 548.743L416.114 394.505C418.37 392.665 420.724 390.948 423.164 389.361L440.563 378.052C445.886 374.592 452.836 374.972 457.75 378.993C463.091 383.363 466.788 389.418 468.234 396.166L469 399.743L482.456 393.152C489.151 389.873 497.236 392.642 500.516 399.337C502.356 403.094 502.35 407.491 500.5 411.243L517.174 408.396C519.717 407.962 522.301 407.819 524.876 407.969L565.483 410.338C572.651 410.756 578.122 416.905 577.704 424.073C577.659 424.842 577.546 425.606 577.366 426.355L572.233 447.697C571.753 449.694 570.768 451.534 569.372 453.042L531.563 493.894C529.19 496.457 526.655 498.864 523.971 501.1L229.741 746.292C221.822 752.891 210.284 752.767 202.509 746L111.357 666.657C99.3777 656.229 92.5004 641.125 92.5004 625.243L87.7653 629.061C81.5262 634.093 72.586 633.959 66.5004 628.743C60.0787 623.238 57.3674 614.548 59.5199 606.369L63.5004 591.243L58.4727 595.46C52.7073 600.295 44.1136 599.541 39.2781 593.776C39.2688 593.765 39.2596 593.754 39.2504 593.743C33.802 587.205 32.0786 578.333 34.6829 570.23L39.5004 555.243L33.1505 559.476C27.2686 563.397 19.4261 562.563 14.5004 557.493C9.38196 552.224 8.04688 544.342 11.1445 537.682L75.9734 398.281C81.3299 386.763 95.0093 381.768 106.527 387.124C110.088 388.78 113.165 391.32 115.466 394.502Z" fill="#8A92A6"/>
<path d="M180.666 482.136C180.055 481.216 178.814 480.965 177.894 481.576C176.974 482.187 176.723 483.429 177.334 484.349L220.834 549.849C221.473 550.811 222.791 551.033 223.71 550.335L248.71 531.335C249.59 530.666 249.761 529.412 249.093 528.532C248.424 527.653 247.169 527.482 246.29 528.15L222.987 545.86L180.666 482.136Z" fill="#043BFF"/>
<path d="M518.425 728.702C518.344 728.413 517.596 725.928 517.329 725.028C516.63 722.662 515.935 720.228 515.194 717.517C513.103 709.858 511.07 701.512 509.164 692.412C501.541 656.018 498 618.028 500.76 580.679C500.842 579.577 500.015 578.618 498.913 578.537C497.812 578.455 496.853 579.282 496.771 580.384C493.98 618.148 497.555 656.499 505.249 693.232C507.172 702.414 509.224 710.837 511.335 718.57C512.084 721.311 512.787 723.771 513.494 726.162C513.77 727.095 514.505 729.538 514.575 729.786C514.874 730.85 515.979 731.469 517.042 731.169C518.105 730.87 518.724 729.765 518.425 728.702Z" fill="#8A92A6"/>
<path d="M190.621 71.5836L206.709 118.383C207.068 119.427 208.206 119.983 209.251 119.624C210.295 119.265 210.851 118.127 210.492 117.082L194.404 70.2832C194.045 69.2386 192.907 68.6829 191.862 69.042C190.818 69.4011 190.262 70.539 190.621 71.5836Z" fill="#043BFF"/>
<mask id="mask9_6634_8213" style="mask-type:alpha" maskUnits="userSpaceOnUse" x="121" y="290" width="43" height="55">
<path d="M153.284 344.668C131.761 343.774 121 334.905 121 318.06C121 300.733 132.386 291.644 155.158 290.793C154.59 291.857 154.17 293.3 154 295.243C153.435 301.698 156.488 304.874 163.16 304.77C151.566 313.86 145.68 322.017 145.5 329.243C145.342 335.578 148.112 341.286 153.284 344.668Z" fill="white"/>
</mask>
<g mask="url(#mask9_6634_8213)">
<path d="M153.284 344.668C131.761 343.774 121 334.905 121 318.06C121 300.733 132.386 291.644 155.158 290.793C154.59 291.857 154.17 293.3 154 295.243C153.435 301.698 156.488 304.874 163.16 304.77C151.566 313.86 145.68 322.017 145.5 329.243C145.342 335.578 148.112 341.286 153.284 344.668Z" fill="#043BFF"/>
</g>
<path d="M592.529 258.577C592.344 257.488 593.077 256.456 594.166 256.271C595.255 256.086 596.287 256.819 596.472 257.908L607.54 323.083C609.168 332.67 605.705 342.415 598.393 348.825L572.819 371.246C571.988 371.975 570.725 371.892 569.996 371.061C569.268 370.23 569.351 368.967 570.182 368.239L595.756 345.817C602.024 340.323 604.992 331.97 603.596 323.753L592.529 258.577ZM626.025 320.554C625.853 319.463 626.597 318.439 627.688 318.267C628.779 318.095 629.804 318.84 629.976 319.931L632.9 338.448C633.992 345.363 632.453 352.436 628.588 358.273L609.668 386.847C609.058 387.768 607.817 388.02 606.896 387.41C605.975 386.8 605.723 385.559 606.333 384.638L625.253 356.065C628.566 351.062 629.885 344.999 628.949 339.072L626.025 320.554ZM562.93 280.216C563.221 281.282 562.592 282.381 561.527 282.672C560.461 282.963 559.362 282.334 559.071 281.269L556.071 270.269C555.78 269.203 556.408 268.104 557.474 267.813C558.54 267.522 559.639 268.151 559.93 269.216L562.93 280.216ZM481.502 274.669C481.542 273.565 482.47 272.703 483.574 272.744C484.678 272.784 485.54 273.712 485.499 274.816C484.802 293.817 477.59 304.995 463.888 307.705C462.805 307.919 461.753 307.214 461.538 306.131C461.324 305.047 462.029 303.995 463.112 303.78C474.744 301.48 480.866 291.991 481.502 274.669Z" fill="#043BFF"/>
<path d="M539.468 77.2702V86.6942H530.788V93.7622H519.628V86.6942H489V77.2702L519.628 50.3622H530.788V77.2702H539.468ZM501.028 77.2702H519.628V61.5222L501.028 77.2702ZM567.802 94.3822C550.566 94.3822 542.382 86.4462 542.382 72.0002C542.382 57.6162 550.566 49.7422 567.802 49.7422C584.976 49.7422 593.222 57.6782 593.222 72.0002C593.222 86.3842 584.976 94.3822 567.802 94.3822ZM567.802 85.0202C577.598 85.0202 582.062 80.1222 582.062 72.0002C582.062 63.9402 577.598 59.1042 567.802 59.1042C558.006 59.1042 553.542 63.8782 553.542 72.0002C553.542 80.1842 558.006 85.0202 567.802 85.0202ZM647.348 77.2702V86.6942H638.668V93.7622H627.508V86.6942H596.88V77.2702L627.508 50.3622H638.668V77.2702H647.348ZM608.908 77.2702H627.508V61.5222L608.908 77.2702Z" fill="white"/>
</svg>
