<svg width="23" height="23" viewBox="0 0 23 23" fill="none" xmlns="http://www.w3.org/2000/svg">
<path d="M20.1581 0.332031C19.4354 0.332031 18.7274 0.612283 18.1816 1.15804L8.83005 10.4801L8.62354 10.6866L8.56454 10.9816L7.91554 14.2856L7.62054 15.6721L9.00705 15.3771L12.3111 14.7281L12.6061 14.6691L12.8126 14.4626L22.1346 5.11107C23.2225 4.02325 23.2225 2.24586 22.1346 1.15804C21.5889 0.612283 20.8809 0.332031 20.1581 0.332031ZM20.1581 2.16104C20.3794 2.16104 20.5969 2.27536 20.8071 2.48555C21.2275 2.90593 21.2275 3.36318 20.8071 3.78356L11.6621 12.9286L10.0396 13.2531L10.3641 11.6306L19.5091 2.48555C19.7193 2.27536 19.9369 2.16104 20.1581 2.16104ZM0.333984 4.07856V22.9587H19.2141V10.5096L17.3261 12.3976V21.0707H2.222V5.96657H10.8951L12.7831 4.07856H0.333984Z" fill="#717171"/>
</svg>
