<svg width="19" height="22" viewBox="0 0 19 22" fill="none" xmlns="http://www.w3.org/2000/svg">
<path d="M3.33268 0.332031C1.86246 0.332031 0.666016 1.52848 0.666016 2.9987C0.666016 4.15568 1.41157 5.13393 2.44379 5.50217V6.82509V17.4049V20.7973C2.44379 21.2773 2.83185 21.6654 3.31185 21.6654H3.35352C3.83352 21.6654 4.22157 21.2773 4.22157 20.7973V16.5352C4.51909 16.1896 5.2335 15.4848 7.28407 15.4848C8.37207 15.4848 9.26195 15.8643 10.2059 16.2661C11.1277 16.6589 12.081 17.0647 13.1886 17.0647C15.2855 17.0647 16.7099 15.9629 17.3188 15.4918L17.4542 15.3893C17.944 15.0347 18.4438 14.5507 18.4438 13.6654V6.26606C18.4438 5.45895 17.7521 4.77648 16.9316 4.77648C16.4916 4.77648 16.1686 5.03123 15.725 5.38411C15.1366 5.84989 14.249 6.55425 13.1886 6.55425C12.4641 6.55425 11.7573 6.21624 10.9368 5.82335C9.91374 5.33268 8.75345 4.77648 7.28233 4.77648C6.27336 4.77648 5.48529 4.94389 4.85525 5.18273C5.54519 4.70019 5.99935 3.9025 5.99935 2.9987C5.99935 1.52848 4.8029 0.332031 3.33268 0.332031ZM3.33268 2.10981C3.82335 2.10981 4.22157 2.50892 4.22157 2.9987C4.22157 3.48848 3.82335 3.88759 3.33268 3.88759C2.84202 3.88759 2.44379 3.48848 2.44379 2.9987C2.44379 2.50892 2.84202 2.10981 3.33268 2.10981ZM7.28233 6.55425C8.35078 6.55425 9.23349 6.97778 10.1695 7.42578C11.0984 7.872 12.0597 8.33203 13.1886 8.33203C14.7486 8.33203 15.9176 7.49157 16.6643 6.90668V13.7244C16.6634 13.7279 16.6242 13.7945 16.4073 13.9518L16.2303 14.0872C15.7263 14.4766 14.6775 15.2869 13.1886 15.2869C12.4437 15.2869 11.7297 14.9835 10.9021 14.6306C9.88613 14.1969 8.73389 13.7053 7.28233 13.7053C5.90278 13.7053 4.92024 13.9836 4.22157 14.332V7.76432C4.52824 7.35899 5.22811 6.55425 7.28233 6.55425Z" fill="#717171"/>
</svg>
