<svg width="152" height="132" viewBox="0 0 152 132" fill="none" xmlns="http://www.w3.org/2000/svg">
<path d="M118.163 131.552L118.733 114.761L106.144 112.855L105.377 131.74" fill="white"/>
<path d="M105.377 132.002C105.31 131.999 105.247 131.971 105.202 131.922C105.156 131.874 105.131 131.809 105.133 131.743L105.9 112.853C105.901 112.817 105.909 112.781 105.925 112.749C105.941 112.716 105.964 112.688 105.992 112.665C106.019 112.642 106.051 112.626 106.085 112.617C106.119 112.608 106.155 112.607 106.19 112.614L118.783 114.52C118.844 114.53 118.9 114.561 118.939 114.609C118.978 114.657 118.999 114.717 118.997 114.779L118.427 131.55C118.426 131.583 118.418 131.616 118.404 131.646C118.39 131.677 118.37 131.704 118.346 131.727C118.321 131.749 118.293 131.767 118.261 131.778C118.23 131.79 118.197 131.795 118.163 131.794C118.13 131.792 118.097 131.785 118.067 131.771C118.036 131.757 118.009 131.737 117.986 131.712C117.964 131.688 117.946 131.659 117.935 131.627C117.923 131.596 117.918 131.563 117.919 131.529L118.473 114.993L106.383 113.163L105.631 131.763C105.627 131.828 105.599 131.889 105.551 131.933C105.504 131.978 105.442 132.002 105.377 132.002Z" fill="#1E293B"/>
<path d="M56.7324 124.302L71.1349 107.227L84.0127 110.377L67.6029 127.163" fill="white"/>
<path d="M67.6024 127.421C67.5354 127.42 67.4714 127.392 67.4245 127.344C67.4009 127.321 67.3821 127.294 67.3692 127.263C67.3564 127.232 67.3498 127.2 67.3498 127.167C67.3498 127.133 67.3564 127.101 67.3692 127.07C67.3821 127.04 67.4009 127.012 67.4245 126.989L83.5193 110.518L71.2259 107.509L56.9251 124.468C56.8801 124.518 56.8177 124.549 56.7507 124.555C56.6836 124.56 56.617 124.54 56.5642 124.498C56.5131 124.454 56.4812 124.392 56.4755 124.324C56.4698 124.257 56.4907 124.19 56.5338 124.138L70.9667 107.062C70.997 107.026 71.0369 106.999 71.0819 106.985C71.1269 106.97 71.1751 106.969 71.2208 106.981L84.0987 110.127C84.1415 110.139 84.1806 110.161 84.2125 110.192C84.2445 110.223 84.2682 110.262 84.2816 110.304C84.2934 110.348 84.294 110.393 84.2833 110.437C84.2727 110.48 84.2511 110.52 84.2206 110.553L67.8108 127.324C67.7855 127.355 67.7537 127.379 67.7176 127.396C67.6815 127.413 67.6422 127.421 67.6024 127.421Z" fill="#1E293B"/>
<path d="M112.547 38.3398C112.547 38.3398 92.9715 43.7065 93.1595 44.4688C93.3476 45.2311 97.1693 59.3489 97.1693 59.3489L109.366 56.2997L112.547 38.3398Z" fill="#3B82F6"/>
<path d="M112.945 38.2208C112.945 38.2208 106.729 39.8878 102.918 42.0832C99.1062 44.2786 100.153 67.6763 100.153 67.6763L128.394 73.3681C128.394 73.3681 133.771 58.1729 133.405 51.2359C133.039 44.299 128.75 34.4601 112.945 38.2208Z" fill="#3B82F6"/>
<path d="M98.8824 56.2747C98.8506 56.2819 98.8176 56.2819 98.7859 56.2747C98.7224 56.2477 98.672 56.197 98.6454 56.1334C98.6188 56.0698 98.6182 55.9983 98.6436 55.9342C100.488 51.3959 103.268 44.4742 103.344 43.9914C103.345 43.9576 103.352 43.9243 103.366 43.8933C103.38 43.8624 103.4 43.8345 103.424 43.8114C103.449 43.7882 103.478 43.7701 103.51 43.7583C103.541 43.7464 103.575 43.741 103.609 43.7424C103.678 43.745 103.744 43.7746 103.793 43.8248C103.841 43.875 103.868 43.942 103.868 44.0117C103.868 44.4488 100.554 52.6512 99.1264 56.1324C99.1038 56.1771 99.0688 56.2144 99.0255 56.2397C98.9822 56.2649 98.9325 56.2771 98.8824 56.2747Z" fill="#1E293B"/>
<path d="M114.673 35.3704L112.68 41.357C112.68 41.357 112.63 44.9144 116.578 44.6044C117.745 44.5002 118.873 44.1378 119.882 43.5436C120.891 42.9495 121.756 42.1383 122.412 41.169L124.079 30.4358C123.475 29.9088 123.091 29.1743 123.002 28.3775C122.915 27.7811 122.932 27.1741 123.053 26.5836C123.238 25.7907 123.534 25.0277 123.932 24.317C122.054 24.024 120.332 23.101 119.048 21.6998C118.743 21.3273 118.458 20.9388 118.194 20.536C118.072 20.3479 115.567 21.5219 115.303 21.654C114.012 22.2231 112.911 23.1509 112.132 24.3272C111.615 25.3436 111.287 26.4458 111.166 27.5797C110.87 29.1377 110.72 30.72 110.719 32.3059C110.749 35.3297 114.673 35.3704 114.673 35.3704Z" fill="white"/>
<path d="M116.086 44.8591C115.155 44.9037 114.244 44.5847 113.545 43.9697C112.859 43.2717 112.469 42.3359 112.457 41.3575C112.455 41.3339 112.455 41.3101 112.457 41.2864L114.353 35.5894C113.387 35.498 110.516 35.005 110.49 32.3217C110.492 30.7238 110.644 29.1296 110.943 27.5598C111.074 26.3924 111.418 25.2589 111.959 24.2159C112.744 23.0018 113.863 22.0401 115.181 21.4462C118.103 20.0029 118.296 20.2976 118.367 20.4298C118.367 20.4298 118.876 21.2226 119.201 21.5681C120.448 22.9355 122.128 23.8327 123.958 24.1092C123.993 24.1159 124.027 24.1309 124.055 24.1531C124.084 24.1753 124.107 24.2039 124.122 24.2366C124.137 24.2694 124.145 24.3053 124.144 24.3414C124.142 24.3776 124.133 24.4129 124.115 24.4446C123.727 25.1361 123.438 25.8785 123.256 26.6502C123.145 27.2161 123.129 27.7968 123.211 28.3679C123.288 29.1046 123.64 29.7851 124.196 30.2737C124.231 30.2974 124.258 30.3307 124.274 30.3694C124.291 30.4082 124.295 30.4508 124.288 30.4922L122.621 41.2254C122.616 41.2558 122.606 41.2851 122.591 41.3118C121.92 42.3192 121.03 43.1623 119.989 43.7782C118.947 44.3941 117.779 44.7671 116.573 44.8692C116.416 44.8591 116.248 44.8591 116.086 44.8591ZM112.904 41.3982C112.928 42.2347 113.263 43.032 113.844 43.6343C114.216 43.9431 114.65 44.169 115.116 44.2969C115.582 44.4249 116.071 44.4519 116.548 44.3763C117.669 44.2725 118.754 43.9249 119.727 43.3578C120.699 42.7907 121.536 42.0178 122.179 41.0933L123.82 30.5328C123.232 29.9712 122.858 29.2216 122.763 28.4136C122.671 27.7992 122.684 27.1735 122.804 26.5638C122.967 25.8556 123.224 25.172 123.566 24.531C121.751 24.1921 120.096 23.2717 118.85 21.9086C118.586 21.6088 118.195 21.0294 118.042 20.8058C117.133 21.1168 116.245 21.4868 115.384 21.9137C114.145 22.4706 113.089 23.3654 112.335 24.4954C111.829 25.4919 111.505 26.5711 111.38 27.6818C111.088 29.2251 110.938 30.7918 110.932 32.3624C110.963 35.1168 114.49 35.188 114.652 35.1931C114.688 35.1932 114.724 35.2021 114.756 35.2189C114.788 35.2357 114.815 35.26 114.835 35.2896C114.857 35.3191 114.872 35.3533 114.878 35.3895C114.884 35.4257 114.882 35.4629 114.871 35.498L112.904 41.3982Z" fill="#1E293B"/>
<path d="M121.975 29.4742C122.168 29.0474 122.49 28.6919 122.895 28.4578C123.287 28.2539 123.712 28.1198 124.15 28.0614C124.386 28.0056 124.631 28.0056 124.867 28.0614C125.029 28.1139 125.18 28.1986 125.309 28.3104C125.639 28.5404 125.875 28.8813 125.975 29.2709C126.016 29.5933 125.979 29.921 125.868 30.2263C125.773 30.5653 125.632 30.89 125.451 31.1919C125.264 31.4895 125.02 31.7469 124.732 31.9492C124.445 32.1515 124.12 32.2946 123.777 32.3702C123.433 32.4459 123.078 32.4526 122.732 32.3899C122.387 32.3272 122.057 32.1964 121.762 32.005" fill="white"/>
<path d="M123.209 32.5963C122.656 32.5967 122.115 32.438 121.649 32.1389C121.604 32.1098 121.573 32.064 121.561 32.0117C121.55 31.9594 121.56 31.9046 121.588 31.8594C121.602 31.8366 121.621 31.8169 121.642 31.8014C121.664 31.7859 121.689 31.775 121.715 31.7693C121.741 31.7636 121.768 31.7632 121.794 31.7682C121.821 31.7732 121.846 31.7835 121.868 31.7984C122.141 31.9746 122.447 32.095 122.767 32.1525C123.087 32.2101 123.415 32.2037 123.733 32.1338C124.363 31.9835 124.91 31.5934 125.258 31.0463C125.43 30.7588 125.564 30.4494 125.654 30.1264C125.753 29.8533 125.787 29.5613 125.756 29.2726C125.663 28.9316 125.454 28.6334 125.166 28.429C125.054 28.3362 124.927 28.264 124.79 28.2156C124.584 28.1704 124.371 28.1704 124.165 28.2156C123.75 28.2731 123.348 28.4003 122.976 28.5916C122.604 28.8072 122.312 29.1369 122.142 29.5318C122.132 29.5565 122.117 29.5789 122.099 29.5977C122.08 29.6165 122.057 29.6313 122.033 29.6412C122.008 29.6512 121.982 29.6561 121.955 29.6556C121.929 29.6552 121.902 29.6494 121.878 29.6385C121.853 29.6292 121.83 29.6147 121.811 29.596C121.792 29.5773 121.776 29.5548 121.766 29.5299C121.756 29.5051 121.752 29.4784 121.752 29.4516C121.753 29.4248 121.76 29.3985 121.771 29.3743C121.977 28.8956 122.334 28.4975 122.788 28.241C123.2 28.0275 123.645 27.8849 124.104 27.8192C124.372 27.7582 124.649 27.7582 124.917 27.8192C125.101 27.8823 125.273 27.9769 125.425 28.0987C125.793 28.3611 126.055 28.7471 126.162 29.1862C126.211 29.5391 126.173 29.8986 126.05 30.2331C125.95 30.5898 125.803 30.9317 125.613 31.2496C125.411 31.5698 125.148 31.847 124.838 32.065C124.528 32.2831 124.179 32.4377 123.809 32.5201C123.613 32.5673 123.412 32.5929 123.209 32.5963Z" fill="#1E293B"/>
<path d="M113.656 38.5305C115.106 38.6768 116.562 38.3178 117.778 37.5141C119.709 36.1673 119.811 34.4648 119.811 34.4648C118.193 35.1653 116.433 35.4752 114.673 35.3694L113.656 38.5305Z" fill="#1E293B"/>
<path d="M114.235 38.7874C114.028 38.7898 113.821 38.778 113.615 38.7519C113.583 38.7475 113.552 38.7361 113.525 38.7184C113.497 38.7008 113.474 38.6773 113.456 38.6497C113.439 38.6221 113.428 38.591 113.424 38.5586C113.42 38.5262 113.423 38.4933 113.432 38.4622L114.449 35.3063C114.465 35.2598 114.495 35.2196 114.535 35.1914C114.575 35.1631 114.623 35.1482 114.673 35.1487C116.394 35.2327 118.111 34.916 119.688 34.2238C119.723 34.2051 119.761 34.1953 119.8 34.1953C119.839 34.1953 119.878 34.2051 119.912 34.2238C119.945 34.2454 119.971 34.275 119.989 34.3097C120.006 34.3444 120.015 34.383 120.014 34.422C120.014 34.4982 119.892 36.2718 117.895 37.6694C116.816 38.403 115.54 38.7928 114.235 38.7874ZM113.946 38.3301C115.253 38.3959 116.546 38.0396 117.635 37.3137C118.537 36.7277 119.197 35.8364 119.495 34.8031C118.008 35.3826 116.42 35.6574 114.825 35.6112L113.946 38.3301Z" fill="#1E293B"/>
<path d="M117.321 25.1016C117.321 25.1016 114.78 27.6426 115.136 28.2727C115.491 28.9029 116.889 28.7809 116.889 28.7809" fill="white"/>
<path d="M116.706 29.0234C116.269 29.0234 115.293 28.9573 114.948 28.3881C114.531 27.7071 116.36 25.7505 117.168 24.9425C117.189 24.9211 117.214 24.9042 117.242 24.8926C117.269 24.881 117.299 24.875 117.329 24.875C117.358 24.875 117.388 24.881 117.415 24.8926C117.443 24.9042 117.468 24.9211 117.489 24.9425C117.531 24.9852 117.554 25.0427 117.554 25.1026C117.554 25.1624 117.531 25.2199 117.489 25.2627C116.198 26.5637 115.181 27.8901 115.329 28.1543C115.568 28.5558 116.548 28.5863 116.853 28.5711C116.913 28.5695 116.971 28.5908 117.015 28.6304C117.059 28.6701 117.087 28.7252 117.092 28.7845C117.094 28.8139 117.089 28.8432 117.079 28.8709C117.069 28.8985 117.054 28.9239 117.034 28.9457C117.014 28.9674 116.99 28.985 116.964 28.9974C116.937 29.0099 116.908 29.017 116.879 29.0183L116.706 29.0234Z" fill="#1E293B"/>
<path d="M113.422 30.2692L118.367 30.2031C118.367 30.2031 118.143 33.5573 115.267 33.7605C112.391 33.9638 113.422 30.2692 113.422 30.2692Z" fill="#1E293B"/>
<path d="M118.488 25.1028C118.553 24.963 118.653 24.8425 118.779 24.7534C118.905 24.6643 119.051 24.6095 119.205 24.5946C119.774 24.5031 120.064 25.1688 120.064 25.1688" fill="white"/>
<path d="M120.063 25.3729C120.02 25.3737 119.976 25.3617 119.939 25.3382C119.902 25.3147 119.873 25.2808 119.855 25.2408C119.855 25.2408 119.631 24.7326 119.24 24.7986C119.126 24.8099 119.016 24.8503 118.922 24.9162C118.827 24.9821 118.751 25.0711 118.701 25.1747C118.681 25.231 118.639 25.2769 118.585 25.3025C118.531 25.3282 118.468 25.3316 118.412 25.3119C118.357 25.2923 118.312 25.2521 118.287 25.2C118.261 25.1478 118.257 25.0877 118.275 25.0324C118.348 24.8501 118.47 24.6912 118.626 24.5722C118.783 24.4532 118.969 24.3787 119.164 24.3565C119.896 24.2345 120.252 25.0273 120.267 25.0629C120.279 25.0899 120.285 25.119 120.285 25.1485C120.286 25.1779 120.28 25.2072 120.27 25.2346C120.259 25.262 120.243 25.2869 120.222 25.3081C120.201 25.3292 120.177 25.346 120.15 25.3576L120.063 25.3729Z" fill="#1E293B"/>
<path d="M113.91 24.674C113.975 24.5342 114.075 24.4137 114.201 24.3246C114.327 24.2354 114.473 24.1807 114.627 24.1658C115.196 24.0692 115.486 24.74 115.486 24.74" fill="white"/>
<path d="M115.486 24.9482C115.441 24.9486 115.398 24.9358 115.36 24.9114C115.323 24.8869 115.294 24.852 115.277 24.811C115.277 24.811 115.054 24.3028 114.662 24.374C114.547 24.3842 114.437 24.4243 114.343 24.4903C114.248 24.5563 114.173 24.6458 114.124 24.75C114.103 24.8063 114.061 24.8522 114.007 24.8779C113.953 24.9035 113.891 24.9069 113.834 24.8872C113.779 24.8666 113.734 24.8255 113.708 24.7724C113.683 24.7194 113.679 24.6586 113.697 24.6026C113.771 24.421 113.893 24.2626 114.049 24.1438C114.206 24.0249 114.391 23.95 114.586 23.9267C115.318 23.8048 115.674 24.6026 115.689 24.6331C115.701 24.6601 115.708 24.6892 115.709 24.7189C115.71 24.7485 115.705 24.7781 115.694 24.8056C115.683 24.8332 115.666 24.8583 115.645 24.8793C115.624 24.9003 115.599 24.9168 115.572 24.9279C115.545 24.9413 115.516 24.9482 115.486 24.9482Z" fill="#1E293B"/>
<path d="M127.83 73.0098L123.784 126.986L56.5391 113.239L101.241 67.3789L127.83 73.0098Z" fill="#1E293B"/>
<path d="M98.8829 33.4131L19.9082 46.5755L54.6489 11.2656L98.8829 33.4131Z" fill="#1E293B"/>
<path d="M19.9079 46.8324C19.8578 46.8327 19.8086 46.8181 19.7667 46.7905C19.7248 46.7629 19.692 46.7236 19.6725 46.6774C19.6529 46.6312 19.6474 46.5802 19.6568 46.5309C19.6661 46.4816 19.6899 46.4362 19.725 46.4004L54.4657 11.0854C54.5038 11.0477 54.5527 11.0229 54.6057 11.0147C54.6586 11.0065 54.7128 11.0152 54.7605 11.0397L98.9741 33.1922C99.0235 33.2142 99.064 33.2523 99.0889 33.3003C99.1139 33.3483 99.1217 33.4034 99.1113 33.4565C99.1065 33.5092 99.0852 33.5591 99.0506 33.5992C99.016 33.6393 98.9697 33.6676 98.9182 33.6801L19.9486 46.8273L19.9079 46.8324ZM54.7046 11.5784L20.655 46.1971L98.0695 33.2938L54.7046 11.5784Z" fill="#1E293B"/>
<path d="M106.175 86.3954L31.6781 99.7967L20.0098 47.0453L98.9438 33.8828L106.175 86.3954Z" fill="#1E293B"/>
<path d="M31.6834 100.05C31.6253 100.051 31.5686 100.032 31.5231 99.996C31.4776 99.9598 31.4462 99.9089 31.4344 99.8519L19.7457 47.0954C19.7318 47.0289 19.7446 46.9595 19.7813 46.9023C19.8005 46.8724 19.8258 46.847 19.8556 46.8277C19.8854 46.8084 19.919 46.7958 19.9541 46.7905L98.9186 33.6281C98.9865 33.6176 99.0557 33.634 99.1117 33.6738C99.1395 33.6942 99.1628 33.72 99.1803 33.7497C99.1978 33.7795 99.209 33.8124 99.2134 33.8466L106.445 86.3592C106.45 86.3915 106.449 86.4246 106.441 86.4564C106.433 86.4883 106.419 86.5183 106.4 86.5447C106.381 86.5711 106.356 86.5935 106.328 86.6105C106.3 86.6275 106.269 86.6388 106.237 86.6438L31.7241 100.045L31.6834 100.05ZM20.3149 47.2479L31.8765 99.5064L105.891 86.1864L98.7306 34.1871L20.3149 47.2479Z" fill="#1E293B"/>
<path d="M37.9336 82.339C37.9336 82.339 24.2121 39.9854 17.6055 27.1076L91.1576 7.07422L95.7315 72.6324L37.9336 82.339Z" fill="#3B82F6"/>
<path d="M30.4887 34.5166C30.4322 34.5169 30.3772 34.4979 30.3329 34.4629C30.2886 34.4278 30.2575 34.3786 30.2448 34.3235C30.2277 34.2588 30.2367 34.19 30.27 34.1319C30.3033 34.0739 30.3582 34.0313 30.4227 34.0135L84.5107 19.9922C84.5781 19.9753 84.6494 19.986 84.709 20.0217C84.7685 20.0574 84.8115 20.1154 84.8283 20.1828C84.8452 20.2502 84.8345 20.3215 84.7988 20.3811C84.7631 20.4406 84.7051 20.4836 84.6377 20.5004L30.5497 34.5065L30.4887 34.5166Z" fill="white"/>
<path d="M32.7757 43.386C32.7182 43.3871 32.6622 43.3677 32.6175 43.3315C32.5729 43.2952 32.5425 43.2443 32.5317 43.1878C32.5243 43.1554 32.5234 43.1219 32.5291 43.0891C32.5348 43.0564 32.5471 43.0251 32.5651 42.9972C32.5831 42.9693 32.6065 42.9452 32.6339 42.9264C32.6613 42.9077 32.6923 42.8946 32.7248 42.888L85.0951 31.1384C85.1625 31.1242 85.2328 31.1374 85.2904 31.175C85.3481 31.2127 85.3884 31.2717 85.4026 31.3391C85.4167 31.4065 85.4035 31.4767 85.3659 31.5344C85.3282 31.5921 85.2692 31.6324 85.2018 31.6466L32.8519 43.381L32.7757 43.386Z" fill="white"/>
<path d="M37.262 51.6844C37.2031 51.6854 37.1458 51.6655 37.1003 51.6283C37.0547 51.5911 37.0238 51.539 37.013 51.4811C37.0063 51.4484 37.0061 51.4147 37.0124 51.382C37.0188 51.3492 37.0315 51.318 37.0499 51.2901C37.0683 51.2623 37.0921 51.2384 37.1197 51.2197C37.1474 51.201 37.1784 51.188 37.2112 51.1813L87.2945 41.4543C87.3269 41.4477 87.3603 41.4475 87.3927 41.4539C87.4252 41.4603 87.456 41.4731 87.4834 41.4916C87.5109 41.51 87.5344 41.5338 87.5525 41.5614C87.5707 41.589 87.5832 41.62 87.5893 41.6525C87.5967 41.6852 87.5974 41.7191 87.5913 41.7522C87.5853 41.7852 87.5726 41.8167 87.5541 41.8447C87.5356 41.8727 87.5116 41.8967 87.4836 41.9152C87.4556 41.9337 87.4241 41.9463 87.3911 41.9523L37.3077 51.6793L37.262 51.6844Z" fill="white"/>
<path d="M39.6463 62.2764C39.5789 62.2817 39.5122 62.2601 39.4607 62.2163C39.4092 62.1725 39.3773 62.11 39.3719 62.0426C39.3665 61.9752 39.3881 61.9084 39.432 61.857C39.4758 61.8055 39.5383 61.7735 39.6057 61.7682L87.1125 54.0384C87.1798 54.0276 87.2488 54.044 87.304 54.0841C87.3593 54.1241 87.3964 54.1844 87.4072 54.2518C87.418 54.3192 87.4016 54.3881 87.3615 54.4434C87.3215 54.4987 87.2612 54.5358 87.1938 54.5466L39.687 62.2713L39.6463 62.2764Z" fill="white"/>
<path d="M64.6909 67.4496L20.0098 47.0453L31.6781 99.7967L106.175 86.3954L98.9438 33.8828L64.6909 67.4496Z" fill="white"/>
<path d="M31.6818 100.047C31.6237 100.049 31.567 100.03 31.5215 99.9933C31.4761 99.9571 31.4447 99.9062 31.4328 99.8493L19.7442 47.0928C19.734 47.0465 19.737 46.9983 19.7528 46.9536C19.7687 46.9089 19.7966 46.8696 19.8336 46.84C19.8706 46.8104 19.9152 46.7917 19.9622 46.7861C20.0093 46.7805 20.057 46.7881 20.0999 46.8082L64.6235 67.1363L98.7646 33.6762C98.7982 33.6426 98.8405 33.619 98.8868 33.6082C98.9331 33.5974 98.9815 33.5998 99.0265 33.6152C99.0715 33.6305 99.1113 33.6582 99.1414 33.695C99.1714 33.7319 99.1906 33.7764 99.1966 33.8236L106.428 86.3362C106.433 86.3685 106.432 86.4016 106.424 86.4334C106.416 86.4653 106.403 86.4953 106.383 86.5217C106.364 86.5482 106.339 86.5705 106.311 86.5875C106.283 86.6045 106.252 86.6158 106.22 86.6208L31.7225 100.042L31.6818 100.047ZM20.3642 47.4841L31.875 99.5037L105.89 86.1837L98.7747 34.4131L64.8675 67.6292C64.8302 67.6648 64.7831 67.6882 64.7323 67.6964C64.6815 67.7045 64.6294 67.6971 64.5829 67.675L20.3642 47.4841Z" fill="#1E293B"/>
<path d="M106.181 86.395L31.6836 99.7963L64.6964 67.4492L106.181 86.395Z" fill="white"/>
<path d="M31.6819 100.05C31.6348 100.05 31.5885 100.038 31.5481 100.014C31.5077 99.9894 31.4748 99.9544 31.4532 99.9126C31.4286 99.8646 31.4202 99.8099 31.4294 99.7567C31.4386 99.7036 31.4647 99.6548 31.504 99.6178L64.5372 67.2657C64.5744 67.2301 64.6215 67.2067 64.6723 67.1985C64.7232 67.1904 64.7753 67.1978 64.8218 67.2199L106.301 86.1606C106.35 86.1837 106.391 86.2216 106.418 86.269C106.444 86.3164 106.455 86.371 106.449 86.4249C106.442 86.4781 106.419 86.5279 106.382 86.5671C106.346 86.6064 106.298 86.6331 106.245 86.6434L31.7276 100.05H31.6819ZM64.7455 67.7535L32.4493 99.3993L105.331 86.2877L64.7455 67.7535Z" fill="#1E293B"/>
<path d="M106.181 86.395L31.6836 99.7963L64.6964 67.4492L106.181 86.395Z" fill="white"/>
<path d="M31.6819 100.05C31.6348 100.05 31.5885 100.038 31.5481 100.014C31.5077 99.9894 31.4748 99.9544 31.4532 99.9126C31.4286 99.8646 31.4202 99.8099 31.4294 99.7567C31.4386 99.7036 31.4647 99.6548 31.504 99.6178L64.5372 67.2657C64.5744 67.2301 64.6215 67.2067 64.6723 67.1985C64.7232 67.1904 64.7753 67.1978 64.8218 67.2199L106.301 86.1606C106.35 86.1837 106.391 86.2216 106.418 86.269C106.444 86.3164 106.455 86.371 106.449 86.4249C106.442 86.4781 106.419 86.5279 106.382 86.5671C106.346 86.6064 106.298 86.6331 106.245 86.6434L31.7276 100.05H31.6819ZM64.7455 67.7535L32.4493 99.3993L105.331 86.2877L64.7455 67.7535Z" fill="#1E293B"/>
<path d="M100.997 13.707C100.997 13.707 99.9143 17.7727 96.4941 17.8743C96.4941 17.8743 100.102 18.8907 100.86 22.2753C101.196 21.3363 101.751 20.4909 102.479 19.8095C103.208 19.128 104.088 18.6301 105.047 18.3571C104.065 17.9377 103.191 17.3015 102.489 16.4963C101.788 15.691 101.277 14.7374 100.997 13.707Z" fill="#E2E8F0"/>
<path d="M2.78125 44.5989C2.78125 44.5989 5.5103 48.5019 3.09125 51.5206C3.09125 51.5206 6.59277 49.1422 10.0689 50.9565C9.50342 49.983 9.17846 48.8887 9.12101 47.7644C9.06355 46.64 9.27526 45.5182 9.73854 44.4922C9.73854 44.4922 6.76556 46.2912 2.78125 44.5989Z" fill="#E2E8F0"/>
<path d="M27.2613 12.7773C27.2613 12.7773 27.8356 19.5771 22.6875 21.5743C22.6875 21.5743 28.73 21.1474 31.7335 25.8941C31.7335 25.8941 31.5201 20.6901 35.9719 17.6561C35.9313 17.6561 30.961 17.7476 27.2613 12.7773Z" fill="#E2E8F0"/>
<path d="M125.071 46.9961C125.071 46.9961 85.5786 67.0244 79.5666 68.1729C73.5546 69.3214 66.4042 67.314 66.6888 69.0318C66.9734 70.7495 70.4088 71.6033 70.4088 71.6033C70.4088 71.6033 59.5383 73.321 60.1075 74.4695C60.6767 75.6181 67.8373 74.1798 67.8373 74.1798C67.8373 74.1798 58.9641 76.7564 60.9664 77.8999C62.9687 79.0434 69.2653 76.4718 69.2653 76.4718C69.2653 76.4718 59.8229 81.3353 62.3995 81.6199C64.9761 81.9045 69.555 79.333 69.555 79.333C69.555 79.333 62.3995 83.0531 65.2607 83.3377C68.1219 83.6223 110.76 68.4575 125.071 59.874" fill="white"/>
<path d="M65.346 83.5978H65.2342C64.7005 83.5419 64.3956 83.3589 64.3397 83.054C64.2533 82.5966 64.8886 81.9563 65.7728 81.3058C64.6887 81.7266 63.5301 81.922 62.3679 81.8801C61.9766 81.8343 61.753 81.687 61.7072 81.4278C61.5649 80.6655 64.0653 79.0545 66.3878 77.7382C64.421 78.3125 61.9969 78.7902 60.8382 78.1295C60.7059 78.0743 60.5944 77.9788 60.5196 77.8565C60.4448 77.7342 60.4104 77.5915 60.4215 77.4485C60.518 76.6456 62.5813 75.7054 64.5684 74.9838C62.4848 75.2429 60.2538 75.3293 59.8777 74.5874C59.8438 74.5222 59.8262 74.4499 59.8262 74.3765C59.8262 74.303 59.8438 74.2307 59.8777 74.1656C60.3859 73.1491 66.5606 71.9955 69.3201 71.5331C68.2275 71.1214 66.6368 70.3134 66.4284 69.0784C66.4073 68.9743 66.411 68.8667 66.4393 68.7642C66.4675 68.6618 66.5195 68.5675 66.5911 68.4889C67.0993 67.9248 68.6544 68.0163 71.0226 68.1535C73.5229 68.2958 76.6128 68.4737 79.5096 67.9299C85.4149 66.8017 124.552 46.9716 124.943 46.7734C125.004 46.7431 125.074 46.7378 125.139 46.7587C125.203 46.7796 125.257 46.825 125.288 46.8852C125.319 46.9452 125.324 47.0148 125.303 47.0786C125.282 47.1424 125.237 47.1953 125.177 47.2257C123.561 48.0439 85.5826 67.2896 79.6061 68.4279C76.6687 68.987 73.5077 68.804 70.9667 68.6617C69.0711 68.5499 67.2822 68.4483 66.9417 68.8243C66.9221 68.847 66.9086 68.8743 66.9024 68.9036C66.8962 68.9329 66.8975 68.9634 66.9061 68.9921C67.1196 70.2676 69.5234 71.1367 70.4382 71.3654C70.5055 71.3687 70.5688 71.3987 70.6141 71.4488C70.6594 71.4988 70.6829 71.5648 70.6795 71.6322C70.6762 71.6996 70.6462 71.7629 70.5961 71.8081C70.5461 71.8534 70.4801 71.8769 70.4127 71.8736C65.7322 72.6105 60.5333 73.7895 60.2995 74.4146C60.5993 74.9736 64.4007 74.6229 67.7498 73.9521C67.7831 73.9441 67.8177 73.9427 67.8516 73.9481C67.8855 73.9535 67.918 73.9655 67.9473 73.9834C67.9766 74.0013 68.002 74.0249 68.0222 74.0526C68.0423 74.0804 68.0568 74.1119 68.0648 74.1452C68.0728 74.1786 68.0742 74.2132 68.0688 74.2471C68.0635 74.281 68.0515 74.3135 68.0335 74.3428C68.0156 74.372 67.9921 74.3975 67.9643 74.4176C67.9366 74.4378 67.9051 74.4523 67.8717 74.4603C64.5735 75.4157 60.9703 76.8641 60.889 77.54C60.889 77.6061 60.9907 77.6772 61.0567 77.7179C62.6118 78.6072 67.4143 76.9759 69.1321 76.2695C69.1936 76.2452 69.2621 76.2454 69.3235 76.2699C69.3849 76.2945 69.4346 76.3416 69.4624 76.4016C69.489 76.4612 69.4918 76.5287 69.47 76.5902C69.4482 76.6517 69.4037 76.7024 69.3455 76.732C65.9253 78.4954 62.2307 80.7569 62.1697 81.3617C62.2415 81.3815 62.3145 81.3968 62.3882 81.4074C64.3092 81.6209 67.4702 80.1319 68.7967 79.461L69.3963 79.1409C69.4557 79.1103 69.5247 79.1044 69.5885 79.1244C69.6522 79.1444 69.7055 79.1886 69.7368 79.2476C69.753 79.2762 69.7634 79.3078 69.7673 79.3405C69.7712 79.3732 69.7685 79.4063 69.7596 79.438C69.7506 79.4696 69.7354 79.4992 69.7149 79.525C69.6945 79.5507 69.6691 79.5722 69.6403 79.5881C69.5996 79.5881 69.3658 79.7456 68.9999 79.9337C66.6266 81.2245 64.7259 82.5966 64.8022 82.9829C64.8022 82.9829 64.8937 83.0794 65.2494 83.115H65.3764C66.9011 83.115 77.3243 79.8015 90.7866 74.7195C98.1454 71.9447 116.197 64.9264 124.943 59.6818C124.971 59.661 125.004 59.6463 125.038 59.6386C125.072 59.6309 125.108 59.6305 125.142 59.6373C125.177 59.6441 125.21 59.6579 125.238 59.678C125.267 59.6981 125.292 59.724 125.31 59.754C125.328 59.784 125.34 59.8175 125.345 59.8523C125.35 59.8872 125.347 59.9226 125.338 59.9565C125.328 59.9903 125.311 60.0217 125.289 60.0488C125.266 60.0759 125.239 60.098 125.207 60.1138C111.404 68.367 69.3658 83.5978 65.346 83.5978Z" fill="#1E293B"/>
<path d="M117.772 63.9253C117.772 63.9253 111.674 49.6194 112.238 49.4263C112.802 49.2331 124.435 41.605 125.406 42.1793C126.376 42.7536 129.979 53.8171 128.836 57.0595C127.692 60.3018 117.772 63.9253 117.772 63.9253Z" fill="#3B82F6"/>
<path d="M119.297 63.9986C119.242 63.9984 119.188 63.9812 119.144 63.9494C119.099 63.9175 119.065 63.8725 119.048 63.8207C119.027 63.7547 119.032 63.683 119.064 63.6212C119.095 63.5595 119.15 63.5125 119.215 63.4904C119.302 63.4599 127.768 60.6038 131.112 56.3247C131.134 56.2979 131.16 56.2756 131.19 56.259C131.22 56.2424 131.253 56.2319 131.287 56.2281C131.321 56.2244 131.355 56.2274 131.388 56.237C131.421 56.2466 131.452 56.2626 131.478 56.2841C131.506 56.3045 131.529 56.3304 131.547 56.3602C131.564 56.39 131.575 56.423 131.58 56.4572C131.584 56.4914 131.581 56.5262 131.572 56.5593C131.562 56.5925 131.546 56.6233 131.524 56.65C128.083 61.051 119.734 63.8715 119.383 63.9884C119.355 63.9968 119.326 64.0002 119.297 63.9986Z" fill="#1E293B"/>
<path d="M126.061 32.911C125.999 32.9097 125.939 32.8862 125.893 32.8448C125.847 32.8033 125.817 32.7468 125.809 32.6853C125.801 32.6238 125.816 32.5615 125.85 32.5097C125.884 32.4579 125.935 32.42 125.995 32.4028C126.943 32.1198 127.816 31.6271 128.549 30.9612C129.282 30.2953 129.856 29.4732 130.228 28.5557C130.969 26.6805 131.145 24.6297 130.736 22.6555C130.452 20.747 129.622 18.9611 128.348 17.5125C127.709 16.8112 126.921 16.264 126.04 15.9118C125.16 15.5597 124.211 15.412 123.266 15.4797L122.895 15.5305C122.617 15.5769 122.337 15.6024 122.056 15.6067C121.713 15.5902 121.373 15.5408 121.04 15.4593L120.821 15.4136C119.03 15.0554 117.177 15.1555 115.435 15.7046C113.692 16.2537 112.117 17.234 110.855 18.5545C109.593 19.875 108.684 21.493 108.214 23.2583C107.745 25.0236 107.728 26.879 108.167 28.6523C108.289 29.1605 108.584 29.9685 109.209 30.0448C109.243 30.0478 109.276 30.0579 109.307 30.0744C109.337 30.0908 109.364 30.1133 109.385 30.1404C109.407 30.1675 109.422 30.1987 109.431 30.232C109.44 30.2654 109.442 30.3002 109.437 30.3344C109.434 30.3686 109.423 30.4016 109.406 30.4316C109.39 30.4617 109.367 30.4881 109.34 30.5094C109.313 30.5306 109.282 30.5463 109.249 30.5556C109.216 30.5648 109.182 30.5674 109.148 30.5631C108.451 30.4767 107.923 29.8466 107.659 28.7793C107.194 26.9179 107.208 24.9692 107.699 23.1146C108.19 21.2601 109.143 19.5598 110.467 18.1722C111.792 16.7845 113.446 15.7545 115.276 15.178C117.106 14.6015 119.052 14.4972 120.933 14.8749L121.162 14.9206C121.468 14.9979 121.781 15.0439 122.097 15.0579C122.349 15.0511 122.6 15.0274 122.849 14.9867C122.981 14.9867 123.108 14.9461 123.24 14.9359C124.265 14.8534 125.295 15.0092 126.25 15.3909C127.205 15.7727 128.058 16.3701 128.744 17.1364C130.097 18.6566 130.98 20.5368 131.285 22.5488C131.71 24.6252 131.518 26.7807 130.731 28.7488C130.329 29.7392 129.709 30.6263 128.917 31.3443C128.126 32.0622 127.182 32.5925 126.157 32.8958L126.061 32.911Z" fill="#1E293B"/>
<path d="M122.092 15.3317C122.092 15.3317 124.734 13.37 129.029 14.4169C133.323 15.4638 134.944 23.2901 130.935 27.4879C130.935 27.4879 131.56 16.0483 122.092 15.3317Z" fill="#1E293B"/>
<path d="M137.374 39.8673H137.349C135.316 39.7421 133.368 39.0071 131.759 37.7582C130.952 37.1219 130.303 36.3079 129.862 35.3797C129.422 34.4516 129.201 33.4342 129.218 32.4069C129.218 32.3721 129.226 32.3379 129.24 32.3063C129.255 32.2746 129.275 32.2463 129.301 32.2229C129.327 32.1996 129.357 32.1818 129.39 32.1706C129.423 32.1594 129.457 32.1551 129.492 32.1578C129.527 32.1591 129.56 32.1673 129.592 32.1819C129.623 32.1964 129.651 32.2171 129.674 32.2427C129.698 32.2682 129.715 32.2982 129.727 32.3307C129.738 32.3633 129.743 32.3978 129.741 32.4323C129.727 33.3767 129.93 34.3118 130.336 35.1649C130.741 36.018 131.338 36.7663 132.079 37.3517C133.32 38.3281 134.792 38.9687 136.353 39.2117C135.924 38.7315 135.651 38.1325 135.57 37.494C135.487 36.5311 135.635 35.5623 136.002 34.6684C136.615 33.1499 137.361 31.689 138.233 30.3029C139.499 28.143 140.693 26.1051 140.957 23.7369C141.112 22.369 140.929 20.984 140.425 19.7029C139.921 18.4218 139.111 17.2836 138.066 16.3878C137.021 15.4919 135.772 14.8656 134.429 14.5636C133.086 14.2616 131.689 14.2931 130.361 14.6553C130.294 14.6727 130.222 14.6634 130.162 14.6293C130.101 14.5952 130.056 14.539 130.036 14.4724C130.027 14.4393 130.024 14.4048 130.028 14.3708C130.033 14.3367 130.043 14.3039 130.06 14.2741C130.078 14.2443 130.1 14.2182 130.127 14.1973C130.155 14.1764 130.186 14.161 130.219 14.1522C131.631 13.7668 133.116 13.7331 134.544 14.0541C135.972 14.3751 137.299 15.0411 138.41 15.9938C139.521 16.9464 140.382 18.1568 140.917 19.519C141.453 20.8812 141.646 22.3538 141.481 23.8081C141.201 26.283 139.92 28.4632 138.685 30.5773C137.843 31.933 137.12 33.3597 136.526 34.8411C136.18 35.6534 136.04 36.5385 136.119 37.4177C136.158 37.8309 136.304 38.2269 136.542 38.5671C136.78 38.9073 137.101 39.1802 137.476 39.3591C137.532 39.3824 137.578 39.4243 137.607 39.4777C137.636 39.5311 137.645 39.5928 137.634 39.6524C137.623 39.712 137.591 39.7659 137.545 39.805C137.499 39.8441 137.44 39.8661 137.379 39.8673H137.374Z" fill="#1E293B"/>
<path d="M114.052 51.5516C113.987 51.563 113.92 51.5497 113.865 51.5143C113.809 51.4788 113.769 51.4239 113.751 51.3602C113.734 51.2965 113.741 51.2286 113.772 51.17C113.802 51.1114 113.853 51.0662 113.915 51.0434L124.359 44.6044C124.418 44.5686 124.489 44.5575 124.557 44.5737C124.624 44.5898 124.683 44.6319 124.719 44.6908C124.738 44.7201 124.75 44.7527 124.756 44.7868C124.761 44.8209 124.76 44.8558 124.752 44.8895C124.744 44.9231 124.729 44.9547 124.709 44.9826C124.688 45.0105 124.663 45.0339 124.633 45.0517L114.189 51.4906C114.15 51.5235 114.103 51.5447 114.052 51.5516Z" fill="#1E293B"/>
<path d="M0.448618 70.5427C0.386618 70.5427 0.327156 70.5181 0.283315 70.4742C0.239474 70.4304 0.214844 70.3709 0.214844 70.3089C0.214844 70.2469 0.239474 70.1875 0.283315 70.1436C0.327156 70.0998 0.386618 70.0752 0.448618 70.0752L16.2029 69.2163C16.2343 69.2127 16.2662 69.2158 16.2963 69.2254C16.3264 69.235 16.3542 69.2509 16.3777 69.2721C16.4012 69.2932 16.42 69.3191 16.4328 69.348C16.4456 69.377 16.4521 69.4083 16.4519 69.4399C16.4547 69.5011 16.4334 69.5609 16.3925 69.6065C16.3516 69.6522 16.2945 69.6799 16.2334 69.6838L0.479109 70.5427H0.448618Z" fill="#E2E8F0"/>
<path d="M38.2224 118.909C38.1775 118.91 38.1333 118.898 38.0954 118.874C38.0435 118.839 38.0071 118.786 37.9938 118.726C37.9805 118.665 37.9914 118.601 38.0242 118.548L45.754 106.529C45.7696 106.502 45.7908 106.477 45.8163 106.458C45.8417 106.439 45.8709 106.425 45.9019 106.417C45.9329 106.409 45.9652 106.408 45.9967 106.413C46.0282 106.419 46.0583 106.43 46.0852 106.448C46.112 106.465 46.1349 106.488 46.1526 106.515C46.1703 106.541 46.1823 106.571 46.1879 106.603C46.1936 106.634 46.1927 106.666 46.1854 106.698C46.178 106.729 46.1644 106.758 46.1453 106.784L38.441 118.803C38.4178 118.839 38.3852 118.868 38.3467 118.887C38.3081 118.905 38.2651 118.913 38.2224 118.909Z" fill="#E2E8F0"/>
<path d="M9.03204 99.4502C8.99036 99.4499 8.94954 99.4384 8.9138 99.4169C8.87806 99.3955 8.8487 99.3649 8.82877 99.3283C8.81363 99.3017 8.80399 99.2723 8.8004 99.2419C8.79682 99.2116 8.79937 99.1808 8.8079 99.1514C8.81643 99.122 8.83076 99.0946 8.85006 99.0709C8.86936 99.0472 8.89322 99.0275 8.92024 99.0132L20.6546 92.4269C20.7094 92.3975 20.7735 92.3905 20.8333 92.4076C20.8931 92.4247 20.9438 92.4644 20.9748 92.5184C20.9902 92.545 21.0003 92.5745 21.0043 92.605C21.0083 92.6356 21.0062 92.6666 20.9982 92.6964C20.9902 92.7262 20.9763 92.754 20.9575 92.7784C20.9387 92.8028 20.9152 92.8232 20.8884 92.8385L9.15401 99.4452C9.11453 99.4576 9.07243 99.4594 9.03204 99.4502Z" fill="#E2E8F0"/>
<path d="M96.032 8.1561C95.9943 8.156 95.9572 8.1468 95.9239 8.12929C95.8906 8.11179 95.862 8.08649 95.8405 8.05556C95.819 8.02462 95.8054 7.98896 95.8007 7.9516C95.796 7.91425 95.8003 7.87631 95.8134 7.84101L98.6746 0.136664C98.6992 0.0829196 98.7431 0.0404625 98.7977 0.0178308C98.8523 -0.00480093 98.9134 -0.00592851 98.9688 0.0146757C99.0242 0.0352798 99.0697 0.076087 99.0962 0.12889C99.1227 0.181692 99.1282 0.242573 99.1117 0.299288L96.2505 8.02397C96.2313 8.06523 96.2003 8.09984 96.1614 8.12338C96.1225 8.14691 96.0774 8.15831 96.032 8.1561Z" fill="#E2E8F0"/>
<path d="M139.244 54.8025C139.189 54.8031 139.135 54.784 139.093 54.7485C139.051 54.713 139.023 54.6636 139.015 54.6093C139.01 54.579 139.011 54.5479 139.018 54.5179C139.025 54.4879 139.038 54.4596 139.056 54.4345C139.073 54.4095 139.096 54.3883 139.122 54.372C139.149 54.3558 139.178 54.3449 139.208 54.34L151.512 52.3072C151.573 52.2983 151.635 52.3134 151.685 52.3494C151.735 52.3854 151.77 52.4395 151.781 52.5003C151.786 52.5307 151.785 52.5618 151.778 52.5918C151.771 52.6218 151.758 52.6501 151.74 52.6751C151.722 52.7001 151.7 52.7214 151.674 52.7376C151.647 52.7538 151.618 52.7647 151.588 52.7696L139.279 54.777L139.244 54.8025Z" fill="#E2E8F0"/>
<path d="M138.959 105.748C138.924 105.748 138.889 105.74 138.857 105.724C138.825 105.708 138.797 105.685 138.776 105.656L131.047 95.9293C131.009 95.8797 130.992 95.8175 131 95.7558C131.007 95.6942 131.039 95.6379 131.087 95.5989C131.111 95.5796 131.138 95.5651 131.167 95.5564C131.196 95.5477 131.227 95.5449 131.257 95.5482C131.288 95.5515 131.317 95.5609 131.344 95.5757C131.37 95.5905 131.394 95.6105 131.412 95.6345L139.142 105.367C139.161 105.391 139.176 105.419 139.184 105.449C139.192 105.478 139.195 105.51 139.191 105.54C139.187 105.571 139.177 105.601 139.162 105.628C139.147 105.654 139.126 105.678 139.102 105.697C139.061 105.728 139.011 105.746 138.959 105.748Z" fill="#E2E8F0"/>
<path d="M18.6629 23.1233C18.6069 23.1239 18.5527 23.104 18.5104 23.0674L12.9862 18.3208C12.9437 18.2763 12.9199 18.2172 12.9199 18.1556C12.9199 18.0941 12.9437 18.0349 12.9862 17.9904C13.0058 17.9664 13.0301 17.9466 13.0575 17.9323C13.085 17.9179 13.1151 17.9093 13.146 17.9069C13.1768 17.9045 13.2079 17.9085 13.2372 17.9185C13.2666 17.9285 13.2935 17.9443 13.3166 17.965L18.8407 22.7116C18.8647 22.7312 18.8845 22.7555 18.8989 22.7829C18.9132 22.8104 18.9219 22.8405 18.9242 22.8714C18.9266 22.9023 18.9227 22.9333 18.9127 22.9626C18.9027 22.992 18.8869 23.019 18.8661 23.042C18.8421 23.0718 18.8107 23.095 18.7751 23.1092C18.7395 23.1235 18.7009 23.1283 18.6629 23.1233Z" fill="#E2E8F0"/>
<path d="M115.923 82.0095C115.88 82.0097 115.838 81.9992 115.801 81.979C115.771 81.9635 115.746 81.9424 115.725 81.9168C115.704 81.8913 115.688 81.8618 115.678 81.8301C115.669 81.7984 115.666 81.7651 115.669 81.7322C115.673 81.6993 115.683 81.6675 115.699 81.6385L121.233 71.5253C121.26 71.4758 121.303 71.4368 121.354 71.4147C121.406 71.3925 121.464 71.3885 121.518 71.4033C121.573 71.4161 121.621 71.4474 121.655 71.4918C121.69 71.5363 121.707 71.5912 121.706 71.6472V80.6119C121.706 80.6793 121.679 80.7439 121.632 80.7916C121.584 80.8393 121.519 80.866 121.452 80.866C121.384 80.866 121.32 80.8393 121.272 80.7916C121.225 80.7439 121.198 80.6793 121.198 80.6119V72.6382L116.116 81.8824C116.096 81.9174 116.068 81.9471 116.034 81.9692C116.001 81.9913 115.963 82.0051 115.923 82.0095Z" fill="white"/>
</svg>
